PathFileType	4	(X/Y/Z)	C:/Users/beibeiliu/ov580/test_trc/User3\sequence.36_training_dense_right.trc
DataRate	CameraRate	NumFrames	NumMarkers	Units	OrigDataRate	OrigDataStartFrame	OrigNumFrames
120	120	10	19	mm	120	1	91
Frame#	Time	ThumbCMC			ThumbMCP			ThumbIP			ThumbTip			IndexMCP			IndexPIP			IndexTip			MiddleMCP			MiddlePIP			MiddleTip			RingMCP			RingPIP			RingTip			PinkyMCP			PinkyPIP			PinkyTip			BackHand1			BackHand2			BackHand3	
		X0	Y0	Z0	X1	Y1	Z1	X2	Y2	Z2	X3	Y3	Z3	X4	Y4	Z4	X5	Y5	Z5	X6	Y6	Z6	X7	Y7	Z7	X8	Y8	Z8	X9	Y9	Z9	X10	Y10	Z10	X11	Y11	Z11	X12	Y12	Z12	X13	Y13	Z13	X14	Y14	Z14	X15	Y15	Z15	X16	Y16	Z16	X17	Y17	Z17	X18	Y18	Z18	
0	0	176.2	45.6535	-17.346	163.251	71.4091	-42.4267	142.84	82.4782	-64.2992	118.834	81.7722	-74.0142	145.141	31.8145	-87.1023	126.794	58.4442	-101.163	122.977	84.4301	-89.6472	124.383	23.9958	-84.9655	111.059	53.4714	-96.5124	105.946	79.9885	-67.4934	111.198	20.4876	-71.8045	94.8779	45.9193	-80.6187	92.4336	72.4991	-59.5954	102.009	16.6211	-54.2754	87.1849	37.4506	-65.4765	82.035	62.5314	-56.3599	139.214	-4.20634	-28.3538	152.17	-7.98801	0.690563	173.153	8.41035	-23.8299	
1	0.00833333	190.607	29.5348	-18.7893	184.724	48.4588	-41.9251	169.938	57.1001	-72.1037	148.361	59.5569	-84.6746	171.318	8.2603	-85.5289	160.912	33.5076	-108.072	151.525	61.2675	-94.5257	153.784	2.62058	-86.3872	141.68	33.1257	-104.712	133.107	62.6014	-82.5472	136.321	1.23476	-78.8745	119.278	20.7034	-90.7766	119.661	53.69	-76.9385	122.531	-0.522228	-59.5453	111.628	19.0268	-78.5668	112.061	46.7326	-73.145	150.828	-18.0998	-25.0673	156.688	-18.0616	5.69378	184.503	-8.85349	-18.7761	
2	0.0166667	202.897	17.1958	-7.84091	199.667	29.0194	-41.0662	194.8	35.3911	-72.4849	174.516	31.817	-88.0344	195.672	-16.4519	-78.1403	193.737	2.55589	-104.301	180.846	32.1224	-99.3906	178.128	-20.581	-86.1186	172.031	5.17662	-105.81	159.255	38.0891	-87.884	157.224	-23.4476	-75.8755	150.598	-4.7607	-95.9966	144.573	27.9022	-87.1001	143.157	-21.7105	-62.581	136.121	-6.51574	-83.0861	135.274	19.6959	-86.2059	161.62	-33.4877	-20.3175	159.382	-30.3148	9.30987	192.65	-23.5257	-6.18021	
3	0.025	213.173	11.2162	-4.18747	214.19	21.6843	-35.1372	212.646	19.8417	-69.521	198.194	15.2478	-90.5712	223.57	-31.5694	-63.1886	221.318	-13.7638	-95.0416	205.916	12.3743	-94.51	202.437	-41.0835	-73.4843	197.801	-16.8309	-99.004	182.387	13.5929	-85.3363	186.001	-42.2977	-69.8191	178.152	-23.959	-94.4159	171.374	6.53908	-89.9889	166.913	-39.1714	-57.2414	164.457	-29.2722	-80.4655	160.457	0.974655	-90.2028	181.256	-44.3189	-11.257	170.252	-33.3183	17.4942	208.991	-28.2342	2.11186	
4	0.0333333	222.061	14.1501	-0.703464	222.412	20.8787	-32.3884	225.385	18.2045	-65.0511	214.553	7.75395	-87.6673	244.915	-32.7249	-55.2932	246.439	-18.7679	-84.2616	225.653	6.09908	-87.7204	231.897	-42.9339	-58.779	225.051	-22.9432	-90.0664	204.779	5.03162	-81.1652	210.782	-47.1432	-56.7148	207.508	-32.27	-88.0646	192.21	-3.44823	-89.2215	189.127	-48.2011	-50.0411	192.152	-37.9176	-79.1857	183.417	-12.7855	-88.6876	197.664	-44.7224	-1.88152	181.716	-37.8682	22.4268	216.47	-25.6608	13.2978	
5	0.0416667	220.285	23.6045	-0.377848	220.198	27.9591	-31.3211	223.835	27.8046	-60.0108	219.989	15.4118	-83.4717	260.009	-13.6063	-48.112	253.753	-4.83372	-79.8738	233.285	22.1216	-82.4424	248.083	-31.7881	-53.9166	241.226	-17.5361	-85.4675	214.294	8.01997	-78.9582	232.583	-38.6966	-55.2036	225.043	-31.0143	-83.6459	207.303	-5.2411	-87.4251	210.973	-46.9691	-50.1528	213.709	-38.3882	-73.0581	197.296	-14.7501	-90.0813	210.949	-42.2012	-2.05453	196.384	-33.6904	21.5856	227.055	-15.963	13.7037	
6	0.05	206.057	37.3259	-0.561533	205.928	47.5522	-32.232	211.255	47.7147	-64.9224	209.9	32.9401	-87.1957	259.185	18.9096	-47.7463	252.189	30.5684	-79.1238	221.273	35.2351	-83.8792	257.202	-0.405795	-53.3153	245.371	8.82023	-84.4253	208.396	19.879	-79.3426	242.855	-19.8824	-54.979	233.167	-13.2866	-82.9345	205.832	2.17336	-87.8499	225.939	-30.1701	-45.9362	222.943	-25.5048	-75.4022	202.151	-8.26771	-89.3748	224.823	-22.2364	2.50418	206.42	-20.18	24.1767	228.546	7.84951	14.4837	
7	0.0583333	183.094	49.6128	0.0422676	181.493	58.0476	-34.5775	184.705	59.4287	-65.8811	190.149	44.3809	-89.8882	241.991	51.5995	-51.4842	228.758	53.7579	-83.4667	196.713	50.7224	-86.8804	246.154	28.2952	-58.8844	230.78	33.3487	-88.2588	190.642	26.7356	-83.4031	239.352	5.75098	-58.7079	226.638	7.2712	-86.005	197.235	15.1738	-89.797	228.323	-10.6541	-47.1246	225.729	-6.57469	-74.4333	199.408	-0.748819	-91.8553	228.678	0.224539	-2.36532	207.131	-6.04238	24.2155	216.488	30.7493	14.657	
8	0.0666667	165.588	50.5652	-4.23972	155.307	60.0373	-34.0473	156.802	61.0848	-63.3285	162.415	50.1148	-88.6032	214.932	66.9721	-56.8728	201.194	69.3021	-86.5824	174.665	56.3493	-90.6941	224.773	47.4836	-62.1024	205.041	46.9003	-92.7094	174.051	35.2727	-90.0798	224.047	26.863	-57.9043	212.323	25.4809	-87.182	177.255	18.7429	-90.156	220.603	4.65382	-52.5026	212.082	9.07802	-78.7717	187.715	3.51614	-90.8276	219.411	12.027	-5.10958	203.71	2.55729	18.7125	199.583	38.8794	11.4757	
9	0.075	142.362	47.6797	1.74986	131.199	53.4728	-32.3491	129.616	55.9576	-61.3331	137.833	45.8024	-87.7869	187.812	70.5651	-59.1495	171.518	73.7603	-85.3759	144.207	52.4862	-87.765	196.846	59.1087	-67.0294	176.811	51.4409	-94.2826	147.756	33.0542	-90.3246	203.022	34.5705	-61.5904	188.652	32.4916	-89.2888	157.455	19.1231	-89.7682	205.068	11.5254	-56.6815	193.16	14.6206	-81.4532	166.778	9.51167	-90.3484	200.164	22.4783	-6.84657	193.906	8.08174	15.2033	184.125	41.263	11.1657	
